# xmcd CD database file
#
# Track frame offsets:
#	150
#	18412
#	44737
#
# Disc length: 835 seconds
#
# Revision: 0
# Processed by: cddbd v1.5.1PL0 Copyright (c) Steve Scherf et al.
# Submitted via: CDex 1.51
#
DISCID=21034103
DTITLE=小泉今日子 - for my life
DYEAR=1999
DGENRE=Pop
TTITLE0=for my life
TTITLE1=inner flower
TTITLE2=for my life(back track)
EXTD=YEAR: 1999
EXTT0=
EXTT1=
EXTT2=
PLAYORDER=
